<svg width="24" height="24" viewBox="0 0 24 24" fill="none" xmlns="http://www.w3.org/2000/svg">
<circle cx="12" cy="12" r="12" fill="#FFB42B"/>
<path d="M7.57833 17.0044C7.41469 17.0042 7.2587 16.9352 7.14841 16.8143C7.03609 16.6944 6.98028 16.5322 6.995 16.3686L7.13791 14.7971L13.7401 8.19728L15.8033 10.2599L9.20291 16.8592L7.63141 17.0021C7.61333 17.0039 7.59525 17.0044 7.57833 17.0044ZM16.2152 9.84753L14.1525 7.78486L15.3897 6.54761C15.4992 6.43807 15.6476 6.37653 15.8025 6.37653C15.9573 6.37653 16.1057 6.43807 16.2152 6.54761L17.4524 7.78486C17.562 7.89427 17.6235 8.04275 17.6235 8.19757C17.6235 8.35239 17.562 8.50086 17.4524 8.61028L16.2157 9.84694L16.2152 9.84753Z" fill="#333333"/>
</svg>
