<svg width="24" height="24" viewBox="0 0 24 24" fill="none" xmlns="http://www.w3.org/2000/svg">
<circle cx="12" cy="12" r="12" fill="#69B626"/>
<path d="M12 17.25C10.7699 17.2653 9.55253 16.9998 8.4405 16.4738C7.57852 16.0532 6.80449 15.4723 6.15975 14.7623C5.47682 14.0281 4.9391 13.1713 4.575 12.237L4.5 12L4.57875 11.763C4.94311 10.8296 5.47968 9.97297 6.1605 9.23776C6.80501 8.52775 7.57878 7.94691 8.4405 7.52626C9.55253 7.00021 10.7699 6.73472 12 6.75001C13.2301 6.73475 14.4475 7.00023 15.5595 7.52626C16.4215 7.94682 17.1955 8.52766 17.8403 9.23776C18.5245 9.97093 19.0624 10.828 19.425 11.763L19.5 12L19.4213 12.237C18.2447 15.2999 15.2806 17.302 12 17.25ZM12 8.25001C9.4469 8.17001 7.10356 9.65634 6.08775 12C7.1034 14.3438 9.44684 15.8302 12 15.75C14.553 15.8298 16.8963 14.3436 17.9122 12C16.8978 9.6552 14.5536 8.16832 12 8.25001ZM12 14.25C10.918 14.2572 9.98203 13.498 9.76572 12.4378C9.54942 11.3777 10.1132 10.3125 11.1115 9.89526C12.1099 9.47799 13.2639 9.82512 13.8664 10.7239C14.4689 11.6227 14.3515 12.8221 13.5863 13.587C13.1672 14.011 12.5961 14.2497 12 14.25Z" fill="#333333"/>
</svg>
